<svg width="32" height="32" viewBox="0 0 32 32" xmlns="http://www.w3.org/2000/svg">
  <!-- Background circle -->
  <circle cx="16" cy="16" r="16" fill="#2563eb"/>
  
  <!-- Truck silhouette -->
  <path d="M6 20h2v2H6v-2zm14 0h2v2h-2v-2z" fill="white"/>
  <path d="M8 18v-6h8v2h4l2 2v2h-2v2h-2v-2H10v2H8v-2z" fill="white"/>
  <rect x="10" y="13" width="4" height="2" fill="#2563eb"/>
  
  <!-- Wrench overlay -->
  <path d="M20 8l-1.5 1.5L20 11l1-1 1 1 1-1-1-1 1-1-1-1-1 1-1-1z" fill="white"/>
  <path d="M17.5 10.5L19 12l-6 6-1.5-1.5 6-6z" fill="white" stroke="#2563eb" stroke-width="0.5"/>
  <circle cx="11.5" cy="18.5" r="1" fill="white"/>
</svg>